<svg id="Capa_1" enable-background="new 0 0 512 512" height="512" viewBox="0 0 512 512" width="512" xmlns="http://www.w3.org/2000/svg"><g><g><path d="m320.922 270c-74.443 0-135-60.557-135-135s60.557-135 135-135 135 60.557 135 135-60.557 135-135 135z" fill="#6cf"/></g><path d="m455.922 135c0-74.443-60.557-135-135-135v270c74.443 0 135-60.557 135-135z" fill="#59abff"/><g fill="#f3f5f9"><path d="m335.922 120h-60v30h30v30h-30v30h90v-30h-30z"/><path d="m305.922 60h30v30h-30z"/></g><path d="m35.922 485.296h374.648l95.508-190.972-13.506-6.68c-22.247-11.005-49.149-1.97-60.245 20.197l-57.147 114.159h-189.258v-30h180c0-33.138-26.863-60-60-60h-69.023c-51.445-46.348-126.695-57.063-170.977 0z" fill="#ffe6cc"/><path d="m48.309 422-12.387 63.296h374.648l31.656-63.296h-67.046-189.258z" fill="#ffccb3"/><path d="m5.922 332h60v180h-60z" fill="#406080"/><path d="m5.922 422h60v90h-60z" fill="#293d66"/><g fill="#e1e6f0"><path d="m320.922 60h15v30h-15z"/><path d="m335.922 120h-15v90h45v-30h-30z"/></g></g></svg>